<?xml version="1.0" encoding="UTF-8" standalone="no"?>
<!-- Created with Inkscape (http://www.inkscape.org/) -->

<svg
   xmlns:dc="http://purl.org/dc/elements/1.1/"
   xmlns:cc="http://creativecommons.org/ns#"
   xmlns:rdf="http://www.w3.org/1999/02/22-rdf-syntax-ns#"
   xmlns:svg="http://www.w3.org/2000/svg"
   xmlns="http://www.w3.org/2000/svg"
   xmlns:sodipodi="http://sodipodi.sourceforge.net/DTD/sodipodi-0.dtd"
   xmlns:inkscape="http://www.inkscape.org/namespaces/inkscape"
   id="svg2837"
   version="1.1"
   inkscape:version="0.47pre4 r22446"
   width="504.2793"
   height="228.62846"
   sodipodi:docname="descriptor-vector.pdf"
   style="display:inline">
  <metadata
     id="metadata2843">
    <rdf:RDF>
      <cc:Work
         rdf:about="">
        <dc:format>image/svg+xml</dc:format>
        <dc:type
           rdf:resource="http://purl.org/dc/dcmitype/StillImage" />
        <dc:title></dc:title>
      </cc:Work>
    </rdf:RDF>
  </metadata>
  <defs
     id="defs2841">
    <inkscape:perspective
       sodipodi:type="inkscape:persp3d"
       inkscape:vp_x="0 : 0.5 : 1"
       inkscape:vp_y="0 : 1000 : 0"
       inkscape:vp_z="1 : 0.5 : 1"
       inkscape:persp3d-origin="0.5 : 0.33333333 : 1"
       id="perspective2845" />
    <inkscape:perspective
       id="perspective2924"
       inkscape:persp3d-origin="0.5 : 0.33333333 : 1"
       inkscape:vp_z="1 : 0.5 : 1"
       inkscape:vp_y="0 : 1000 : 0"
       inkscape:vp_x="0 : 0.5 : 1"
       sodipodi:type="inkscape:persp3d" />
    <inkscape:perspective
       id="perspective3919"
       inkscape:persp3d-origin="0.5 : 0.33333333 : 1"
       inkscape:vp_z="1 : 0.5 : 1"
       inkscape:vp_y="0 : 1000 : 0"
       inkscape:vp_x="0 : 0.5 : 1"
       sodipodi:type="inkscape:persp3d" />
    <inkscape:perspective
       id="perspective3941"
       inkscape:persp3d-origin="0.5 : 0.33333333 : 1"
       inkscape:vp_z="1 : 0.5 : 1"
       inkscape:vp_y="0 : 1000 : 0"
       inkscape:vp_x="0 : 0.5 : 1"
       sodipodi:type="inkscape:persp3d" />
    <inkscape:perspective
       id="perspective3941-2"
       inkscape:persp3d-origin="0.5 : 0.33333333 : 1"
       inkscape:vp_z="1 : 0.5 : 1"
       inkscape:vp_y="0 : 1000 : 0"
       inkscape:vp_x="0 : 0.5 : 1"
       sodipodi:type="inkscape:persp3d" />
    <inkscape:perspective
       id="perspective3941-9"
       inkscape:persp3d-origin="0.5 : 0.33333333 : 1"
       inkscape:vp_z="1 : 0.5 : 1"
       inkscape:vp_y="0 : 1000 : 0"
       inkscape:vp_x="0 : 0.5 : 1"
       sodipodi:type="inkscape:persp3d" />
    <inkscape:perspective
       id="perspective3941-6"
       inkscape:persp3d-origin="0.5 : 0.33333333 : 1"
       inkscape:vp_z="1 : 0.5 : 1"
       inkscape:vp_y="0 : 1000 : 0"
       inkscape:vp_x="0 : 0.5 : 1"
       sodipodi:type="inkscape:persp3d" />
    <inkscape:perspective
       id="perspective3941-97"
       inkscape:persp3d-origin="0.5 : 0.33333333 : 1"
       inkscape:vp_z="1 : 0.5 : 1"
       inkscape:vp_y="0 : 1000 : 0"
       inkscape:vp_x="0 : 0.5 : 1"
       sodipodi:type="inkscape:persp3d" />
    <inkscape:perspective
       id="perspective3941-7"
       inkscape:persp3d-origin="0.5 : 0.33333333 : 1"
       inkscape:vp_z="1 : 0.5 : 1"
       inkscape:vp_y="0 : 1000 : 0"
       inkscape:vp_x="0 : 0.5 : 1"
       sodipodi:type="inkscape:persp3d" />
    <inkscape:perspective
       id="perspective3941-62"
       inkscape:persp3d-origin="0.5 : 0.33333333 : 1"
       inkscape:vp_z="1 : 0.5 : 1"
       inkscape:vp_y="0 : 1000 : 0"
       inkscape:vp_x="0 : 0.5 : 1"
       sodipodi:type="inkscape:persp3d" />
    <inkscape:perspective
       id="perspective3941-60"
       inkscape:persp3d-origin="0.5 : 0.33333333 : 1"
       inkscape:vp_z="1 : 0.5 : 1"
       inkscape:vp_y="0 : 1000 : 0"
       inkscape:vp_x="0 : 0.5 : 1"
       sodipodi:type="inkscape:persp3d" />
    <inkscape:perspective
       id="perspective4098"
       inkscape:persp3d-origin="0.5 : 0.33333333 : 1"
       inkscape:vp_z="1 : 0.5 : 1"
       inkscape:vp_y="0 : 1000 : 0"
       inkscape:vp_x="0 : 0.5 : 1"
       sodipodi:type="inkscape:persp3d" />
    <inkscape:perspective
       id="perspective4098-1"
       inkscape:persp3d-origin="0.5 : 0.33333333 : 1"
       inkscape:vp_z="1 : 0.5 : 1"
       inkscape:vp_y="0 : 1000 : 0"
       inkscape:vp_x="0 : 0.5 : 1"
       sodipodi:type="inkscape:persp3d" />
    <inkscape:perspective
       id="perspective5631"
       inkscape:persp3d-origin="0.5 : 0.33333333 : 1"
       inkscape:vp_z="1 : 0.5 : 1"
       inkscape:vp_y="0 : 1000 : 0"
       inkscape:vp_x="0 : 0.5 : 1"
       sodipodi:type="inkscape:persp3d" />
    <inkscape:perspective
       id="perspective5631-3"
       inkscape:persp3d-origin="0.5 : 0.33333333 : 1"
       inkscape:vp_z="1 : 0.5 : 1"
       inkscape:vp_y="0 : 1000 : 0"
       inkscape:vp_x="0 : 0.5 : 1"
       sodipodi:type="inkscape:persp3d" />
    <inkscape:perspective
       id="perspective5631-1"
       inkscape:persp3d-origin="0.5 : 0.33333333 : 1"
       inkscape:vp_z="1 : 0.5 : 1"
       inkscape:vp_y="0 : 1000 : 0"
       inkscape:vp_x="0 : 0.5 : 1"
       sodipodi:type="inkscape:persp3d" />
    <inkscape:perspective
       id="perspective5631-4"
       inkscape:persp3d-origin="0.5 : 0.33333333 : 1"
       inkscape:vp_z="1 : 0.5 : 1"
       inkscape:vp_y="0 : 1000 : 0"
       inkscape:vp_x="0 : 0.5 : 1"
       sodipodi:type="inkscape:persp3d" />
    <inkscape:perspective
       id="perspective5631-6"
       inkscape:persp3d-origin="0.5 : 0.33333333 : 1"
       inkscape:vp_z="1 : 0.5 : 1"
       inkscape:vp_y="0 : 1000 : 0"
       inkscape:vp_x="0 : 0.5 : 1"
       sodipodi:type="inkscape:persp3d" />
    <inkscape:perspective
       id="perspective5631-8"
       inkscape:persp3d-origin="0.5 : 0.33333333 : 1"
       inkscape:vp_z="1 : 0.5 : 1"
       inkscape:vp_y="0 : 1000 : 0"
       inkscape:vp_x="0 : 0.5 : 1"
       sodipodi:type="inkscape:persp3d" />
    <inkscape:perspective
       id="perspective5631-0"
       inkscape:persp3d-origin="0.5 : 0.33333333 : 1"
       inkscape:vp_z="1 : 0.5 : 1"
       inkscape:vp_y="0 : 1000 : 0"
       inkscape:vp_x="0 : 0.5 : 1"
       sodipodi:type="inkscape:persp3d" />
    <inkscape:perspective
       id="perspective5631-9"
       inkscape:persp3d-origin="0.5 : 0.33333333 : 1"
       inkscape:vp_z="1 : 0.5 : 1"
       inkscape:vp_y="0 : 1000 : 0"
       inkscape:vp_x="0 : 0.5 : 1"
       sodipodi:type="inkscape:persp3d" />
    <inkscape:perspective
       id="perspective5631-62"
       inkscape:persp3d-origin="0.5 : 0.33333333 : 1"
       inkscape:vp_z="1 : 0.5 : 1"
       inkscape:vp_y="0 : 1000 : 0"
       inkscape:vp_x="0 : 0.5 : 1"
       sodipodi:type="inkscape:persp3d" />
    <inkscape:perspective
       id="perspective5725"
       inkscape:persp3d-origin="0.5 : 0.33333333 : 1"
       inkscape:vp_z="1 : 0.5 : 1"
       inkscape:vp_y="0 : 1000 : 0"
       inkscape:vp_x="0 : 0.5 : 1"
       sodipodi:type="inkscape:persp3d" />
    <inkscape:perspective
       id="perspective5725-0"
       inkscape:persp3d-origin="0.5 : 0.33333333 : 1"
       inkscape:vp_z="1 : 0.5 : 1"
       inkscape:vp_y="0 : 1000 : 0"
       inkscape:vp_x="0 : 0.5 : 1"
       sodipodi:type="inkscape:persp3d" />
    <inkscape:perspective
       id="perspective5844"
       inkscape:persp3d-origin="0.5 : 0.33333333 : 1"
       inkscape:vp_z="1 : 0.5 : 1"
       inkscape:vp_y="0 : 1000 : 0"
       inkscape:vp_x="0 : 0.5 : 1"
       sodipodi:type="inkscape:persp3d" />
  </defs>
  <sodipodi:namedview
     pagecolor="#ffffff"
     bordercolor="#666666"
     borderopacity="1"
     objecttolerance="10"
     gridtolerance="10"
     guidetolerance="10"
     inkscape:pageopacity="0"
     inkscape:pageshadow="2"
     inkscape:window-width="1366"
     inkscape:window-height="641"
     id="namedview2839"
     showgrid="false"
     inkscape:object-paths="false"
     inkscape:snap-nodes="false"
     inkscape:zoom="1.0697256"
     inkscape:cx="177.89826"
     inkscape:cy="91.937024"
     inkscape:window-x="0"
     inkscape:window-y="51"
     inkscape:window-maximized="1"
     inkscape:current-layer="svg2837" />
  <g
     inkscape:groupmode="layer"
     id="layer2"
     inkscape:label="background"
     style="opacity:0.33536586;display:inline"
     transform="translate(-21.305015,-22.173478)" />
  <g
     inkscape:groupmode="layer"
     id="layer1"
     inkscape:label="worm-shape"
     transform="translate(-21.305015,-22.173478)">
    <g
       id="g3744"
       style="fill:none;stroke:#000000;stroke-opacity:1">
      <g
         id="g3873"
         style="stroke:#000000;stroke-width:4;stroke-miterlimit:4;stroke-opacity:1;stroke-dasharray:none">
        <path
           style="fill:none;stroke:#000000;stroke-width:4;stroke-linecap:butt;stroke-linejoin:miter;stroke-miterlimit:4;stroke-opacity:1;stroke-dasharray:none"
           d="m 23.370479,129.71026 c -1.095434,0 12.632257,47.67578 46.740956,63.56771 32.970895,15.3618 72.356065,40.15269 100.025655,39.2624 23.88278,-0.76845 98.38016,-9.68443 118.72202,-33.65349 18.43657,-21.72404 32.71867,-46.74095 50.48024,-57.02396 17.76156,-10.28301 17.76156,-9.34819 17.76156,-9.34819"
           id="path2948"
           sodipodi:nodetypes="cssssc" />
        <path
           style="fill:none;stroke:#000000;stroke-width:4;stroke-linecap:butt;stroke-linejoin:miter;stroke-miterlimit:4;stroke-opacity:1;stroke-dasharray:none"
           d="m 355.23127,133.44955 c 0,0 29.91422,-20.56602 51.41506,9.34819 21.50084,29.91421 47.67577,43.9365 72.91589,33.65349 25.24011,-10.28302 61.69806,-27.10976 31.78385,-38.32759 -29.91422,-11.21783 -57.02397,-32.71867 -77.58999,-60.763243 -20.56602,-28.044574 -46.74096,-47.675776 -89.74264,-32.71867 -43.00168,14.957107 -75.72035,65.437343 -75.72035,65.437343 0,0 -23.37048,36.45794 -56.08915,39.2624 -32.71867,2.80446 -56.08914,9.34819 -87.873,-0.93482 C 92.547094,138.12364 92.687644,138.00092 92.687644,138.00092"
           id="path2960"
           sodipodi:nodetypes="cssssscssc" />
        <path
           style="fill:none;stroke:#000000;stroke-width:4;stroke-linecap:butt;stroke-linejoin:miter;stroke-miterlimit:4;stroke-opacity:1;stroke-dasharray:none"
           d="m 95.077749,139.05846 c -37.918487,-17.97568 -68.599058,-27.11761 -71.70727,-10.28301 0,0 -0.317872,0.75217 0.44728,2.71796 0.765151,1.96579 0,0 0,0"
           id="path2970"
           sodipodi:nodetypes="ccsc" />
      </g>
    </g>
    <g
       inkscape:groupmode="layer"
       id="layer4"
       inkscape:label="control points"
       style="display:inline" />
  </g>
  <g
     inkscape:groupmode="layer"
     id="layer6"
     inkscape:label="lines-center"
     transform="translate(-21.305015,-22.173478)">
    <path
       style="fill:none;stroke:#000000;stroke-width:1px;stroke-linecap:butt;stroke-linejoin:miter;stroke-opacity:1"
       d="m 26.687607,122.7533 61.866766,46.27449"
       id="path4021"
       sodipodi:nodetypes="cc" />
    <path
       style="fill:none;stroke:#000000;stroke-width:1px;stroke-linecap:butt;stroke-linejoin:miter;stroke-opacity:1"
       d="m 91.338473,170.12459 78.798607,25.49043 0,0 90.67746,-22.90308 57.95879,-65.90474 69.64402,-24.305298"
       id="path4031"
       sodipodi:nodetypes="cccccc" />
    <path
       style="fill:none;stroke:#000000;stroke-width:1px;stroke-linecap:butt;stroke-linejoin:miter;stroke-opacity:1"
       d="m 388.41735,82.034493 50.48023,56.089147 82.7315,14.02229"
       id="path4035" />
  </g>
  <g
     inkscape:groupmode="layer"
     id="layer7"
     inkscape:label="bisectinos"
     transform="translate(-21.305015,-22.173478)">
    <path
       style="fill:none;stroke:#000000;stroke-width:1px;stroke-linecap:butt;stroke-linejoin:miter;stroke-opacity:1"
       d="M 116.38498,114.75316 67.306978,221.78995"
       id="path4040" />
    <path
       style="fill:none;stroke:#000000;stroke-width:1px;stroke-linecap:butt;stroke-linejoin:miter;stroke-opacity:1"
       d="m 167.33263,131.1125 6.07632,119.18944"
       id="path4042" />
    <path
       style="fill:none;stroke:#000000;stroke-width:1px;stroke-linecap:butt;stroke-linejoin:miter;stroke-opacity:1"
       d="m 225.29141,114.75316 63.5677,101.89529"
       id="path4044" />
    <path
       style="fill:none;stroke:#000000;stroke-width:1px;stroke-linecap:butt;stroke-linejoin:miter;stroke-opacity:1"
       d="m 288.85911,53.0551 56.55656,106.10197"
       id="path4046" />
    <path
       style="fill:none;stroke:#000000;stroke-width:1px;stroke-linecap:butt;stroke-linejoin:miter;stroke-opacity:1"
       d="M 398.70036,22.673478 377.66693,142.33033"
       id="path4050" />
    <path
       style="fill:none;stroke:#000000;stroke-width:1px;stroke-linecap:butt;stroke-linejoin:miter;stroke-opacity:1"
       d="M 413.19006,184.39719 471.61625,80.164854"
       id="path4052" />
  </g>
  <g
     inkscape:groupmode="layer"
     id="layer5"
     inkscape:label="control points#1"
     style="display:inline"
     transform="translate(-21.305015,-22.173478)">
    <path
       sodipodi:type="arc"
       style="fill:#de1400;fill-opacity:1;stroke:#000000;stroke-width:1;stroke-linejoin:miter;stroke-miterlimit:4;stroke-opacity:1;stroke-dasharray:none;stroke-dashoffset:0"
       id="path3896"
       sodipodi:cx="96.286369"
       sodipodi:cy="178.32086"
       sodipodi:rx="4.6740956"
       sodipodi:ry="4.6740956"
       d="m 100.96046,178.32086 c 0,2.58143 -2.092659,4.6741 -4.674091,4.6741 -2.581431,0 -4.674095,-2.09267 -4.674095,-4.6741 0,-2.58143 2.092664,-4.67409 4.674095,-4.67409 2.581432,0 4.674091,2.09266 4.674091,4.67409 z"
       transform="translate(-69.532584,-55.195881)" />
    <path
       sodipodi:type="arc"
       style="fill:#de1400;fill-opacity:1;stroke:#000000;stroke-width:1;stroke-linejoin:miter;stroke-miterlimit:4;stroke-opacity:1;stroke-dasharray:none;stroke-dashoffset:0"
       id="path3896-2"
       sodipodi:cx="96.286369"
       sodipodi:cy="178.32086"
       sodipodi:rx="4.6740956"
       sodipodi:ry="4.6740956"
       d="m 100.96046,178.32086 c 0,2.58143 -2.092659,4.6741 -4.674091,4.6741 -2.581431,0 -4.674095,-2.09267 -4.674095,-4.6741 0,-2.58143 2.092664,-4.67409 4.674095,-4.67409 2.581432,0 4.674091,2.09266 4.674091,4.67409 z"
       transform="translate(-5.3752084,-8.0763225)" />
    <path
       sodipodi:type="arc"
       style="fill:#de1400;fill-opacity:1;stroke:#000000;stroke-width:1;stroke-linejoin:miter;stroke-miterlimit:4;stroke-opacity:1;stroke-dasharray:none;stroke-dashoffset:0"
       id="path3896-6"
       sodipodi:cx="96.286369"
       sodipodi:cy="178.32086"
       sodipodi:rx="4.6740956"
       sodipodi:ry="4.6740956"
       d="m 100.96046,178.32086 c 0,2.58143 -2.092659,4.6741 -4.674091,4.6741 -2.581431,0 -4.674095,-2.09267 -4.674095,-4.6741 0,-2.58143 2.092664,-4.67409 4.674095,-4.67409 2.581432,0 4.674091,2.09266 4.674091,4.67409 z"
       transform="translate(74.318121,17.294156)" />
    <path
       sodipodi:type="arc"
       style="fill:#de1400;fill-opacity:1;stroke:#000000;stroke-width:1;stroke-linejoin:miter;stroke-miterlimit:4;stroke-opacity:1;stroke-dasharray:none;stroke-dashoffset:0"
       id="path3896-3"
       sodipodi:cx="96.286369"
       sodipodi:cy="178.32086"
       sodipodi:rx="4.6740956"
       sodipodi:ry="4.6740956"
       d="m 100.96046,178.32086 c 0,2.58143 -2.092659,4.6741 -4.674091,4.6741 -2.581431,0 -4.674095,-2.09267 -4.674095,-4.6741 0,-2.58143 2.092664,-4.67409 4.674095,-4.67409 2.581432,0 4.674091,2.09266 4.674091,4.67409 z"
       transform="translate(164.99558,-7.0111413)" />
    <path
       sodipodi:type="arc"
       style="fill:#de1400;fill-opacity:1;stroke:#000000;stroke-width:1;stroke-linejoin:miter;stroke-miterlimit:4;stroke-opacity:1;stroke-dasharray:none;stroke-dashoffset:0"
       id="path3896-64"
       sodipodi:cx="96.286369"
       sodipodi:cy="178.32086"
       sodipodi:rx="4.6740956"
       sodipodi:ry="4.6740956"
       d="m 100.96046,178.32086 c 0,2.58143 -2.092659,4.6741 -4.674091,4.6741 -2.581431,0 -4.674095,-2.09267 -4.674095,-4.6741 0,-2.58143 2.092664,-4.67409 4.674095,-4.67409 2.581432,0 4.674091,2.09266 4.674091,4.67409 z"
       transform="translate(222.48696,-71.513662)" />
    <path
       sodipodi:type="arc"
       style="fill:#de1400;fill-opacity:1;stroke:#000000;stroke-width:1;stroke-linejoin:miter;stroke-miterlimit:4;stroke-opacity:1;stroke-dasharray:none;stroke-dashoffset:0"
       id="path3896-7"
       sodipodi:cx="96.286369"
       sodipodi:cy="178.32086"
       sodipodi:rx="4.6740956"
       sodipodi:ry="4.6740956"
       d="m 100.96046,178.32086 c 0,2.58143 -2.092659,4.6741 -4.674091,4.6741 -2.581431,0 -4.674095,-2.09267 -4.674095,-4.6741 0,-2.58143 2.092664,-4.67409 4.674095,-4.67409 2.581432,0 4.674091,2.09266 4.674091,4.67409 z"
       transform="translate(291.66357,-94.88414)" />
    <path
       sodipodi:type="arc"
       style="fill:#de1400;fill-opacity:1;stroke:#000000;stroke-width:1;stroke-linejoin:miter;stroke-miterlimit:4;stroke-opacity:1;stroke-dasharray:none;stroke-dashoffset:0"
       id="path3896-23"
       sodipodi:cx="96.286369"
       sodipodi:cy="178.32086"
       sodipodi:rx="4.6740956"
       sodipodi:ry="4.6740956"
       d="m 100.96046,178.32086 c 0,2.58143 -2.092659,4.6741 -4.674091,4.6741 -2.581431,0 -4.674095,-2.09267 -4.674095,-4.6741 0,-2.58143 2.092664,-4.67409 4.674095,-4.67409 2.581432,0 4.674091,2.09266 4.674091,4.67409 z"
       transform="translate(344.01345,-41.001678)" />
    <path
       sodipodi:type="arc"
       style="fill:#de1400;fill-opacity:1;stroke:#000000;stroke-width:1;stroke-linejoin:miter;stroke-miterlimit:4;stroke-opacity:1;stroke-dasharray:none;stroke-dashoffset:0"
       id="path3896-76"
       sodipodi:cx="96.286369"
       sodipodi:cy="178.32086"
       sodipodi:rx="4.6740956"
       sodipodi:ry="4.6740956"
       d="m 100.96046,178.32086 c 0,2.58143 -2.092659,4.6741 -4.674091,4.6741 -2.581431,0 -4.674095,-2.09267 -4.674095,-4.6741 0,-2.58143 2.092664,-4.67409 4.674095,-4.67409 2.581432,0 4.674091,2.09266 4.674091,4.67409 z"
       transform="translate(424.12385,-26.992322)" />
  </g>
  <g
     inkscape:groupmode="layer"
     id="layer8"
     inkscape:label="intersections"
     style="opacity:0.56621004;display:inline"
     transform="translate(-21.305015,-22.173478)">
    <path
       sodipodi:type="arc"
       style="fill:#1b87dd;fill-opacity:1;stroke:#000000;stroke-width:1;stroke-linejoin:miter;stroke-miterlimit:4;stroke-opacity:1;stroke-dasharray:none;stroke-dashoffset:0;display:inline"
       id="path3896-2-2"
       sodipodi:cx="96.286369"
       sodipodi:cy="178.32086"
       sodipodi:rx="4.6740956"
       sodipodi:ry="4.6740956"
       d="m 100.96046,178.32086 c 0,2.58143 -2.092659,4.6741 -4.674091,4.6741 -2.581431,0 -4.674095,-2.09267 -4.674095,-4.6741 0,-2.58143 2.092664,-4.67409 4.674095,-4.67409 2.581432,0 4.674091,2.09266 4.674091,4.67409 z"
       transform="translate(8.1796688,-35.990535)" />
    <path
       sodipodi:type="arc"
       style="fill:#1b87dd;fill-opacity:1;stroke:#000000;stroke-width:1;stroke-linejoin:miter;stroke-miterlimit:4;stroke-opacity:1;stroke-dasharray:none;stroke-dashoffset:0;display:inline"
       id="path3896-2-2-9"
       sodipodi:cx="96.286369"
       sodipodi:cy="178.32086"
       sodipodi:rx="4.6740956"
       sodipodi:ry="4.6740956"
       d="m 100.96046,178.32086 c 0,2.58143 -2.092659,4.6741 -4.674091,4.6741 -2.581431,0 -4.674095,-2.09267 -4.674095,-4.6741 0,-2.58143 2.092664,-4.67409 4.674095,-4.67409 2.581432,0 4.674091,2.09266 4.674091,4.67409 z"
       transform="translate(-17.761561,18.566023)" />
    <path
       sodipodi:type="arc"
       style="fill:#1b87dd;fill-opacity:1;stroke:#000000;stroke-width:1;stroke-linejoin:miter;stroke-miterlimit:4;stroke-opacity:1;stroke-dasharray:none;stroke-dashoffset:0;display:inline"
       id="path3896-2-2-96"
       sodipodi:cx="96.286369"
       sodipodi:cy="178.32086"
       sodipodi:rx="4.6740956"
       sodipodi:ry="4.6740956"
       d="m 100.96046,178.32086 c 0,2.58143 -2.092659,4.6741 -4.674091,4.6741 -2.581431,0 -4.674095,-2.09267 -4.674095,-4.6741 0,-2.58143 2.092664,-4.67409 4.674095,-4.67409 2.581432,0 4.674091,2.09266 4.674091,4.67409 z"
       transform="translate(72.448485,-24.772705)" />
    <path
       sodipodi:type="arc"
       style="fill:#1b87dd;fill-opacity:1;stroke:#000000;stroke-width:1;stroke-linejoin:miter;stroke-miterlimit:4;stroke-opacity:1;stroke-dasharray:none;stroke-dashoffset:0;display:inline"
       id="path3896-2-2-3"
       sodipodi:cx="96.286369"
       sodipodi:cy="178.32086"
       sodipodi:rx="4.6740956"
       sodipodi:ry="4.6740956"
       d="m 100.96046,178.32086 c 0,2.58143 -2.092659,4.6741 -4.674091,4.6741 -2.581431,0 -4.674095,-2.09267 -4.674095,-4.6741 0,-2.58143 2.092664,-4.67409 4.674095,-4.67409 2.581432,0 4.674091,2.09266 4.674091,4.67409 z"
       transform="translate(76.187761,53.752102)" />
    <path
       sodipodi:type="arc"
       style="fill:#1b87dd;fill-opacity:1;stroke:#000000;stroke-width:1;stroke-linejoin:miter;stroke-miterlimit:4;stroke-opacity:1;stroke-dasharray:none;stroke-dashoffset:0;display:inline"
       id="path3896-2-2-0"
       sodipodi:cx="96.286369"
       sodipodi:cy="178.32086"
       sodipodi:rx="4.6740956"
       sodipodi:ry="4.6740956"
       d="m 100.96046,178.32086 c 0,2.58143 -2.092659,4.6741 -4.674091,4.6741 -2.581431,0 -4.674095,-2.09267 -4.674095,-4.6741 0,-2.58143 2.092664,-4.67409 4.674095,-4.67409 2.581432,0 4.674091,2.09266 4.674091,4.67409 z"
       transform="translate(143.49474,-39.729811)" />
    <path
       sodipodi:type="arc"
       style="fill:#1b87dd;fill-opacity:1;stroke:#000000;stroke-width:1;stroke-linejoin:miter;stroke-miterlimit:4;stroke-opacity:1;stroke-dasharray:none;stroke-dashoffset:0;display:inline"
       id="path3896-2-2-07"
       sodipodi:cx="96.286369"
       sodipodi:cy="178.32086"
       sodipodi:rx="4.6740956"
       sodipodi:ry="4.6740956"
       d="m 100.96046,178.32086 c 0,2.58143 -2.092659,4.6741 -4.674091,4.6741 -2.581431,0 -4.674095,-2.09267 -4.674095,-4.6741 0,-2.58143 2.092664,-4.67409 4.674095,-4.67409 2.581432,0 4.674091,2.09266 4.674091,4.67409 z"
       transform="translate(185.5616,27.577166)" />
    <path
       sodipodi:type="arc"
       style="fill:#1b87dd;fill-opacity:1;stroke:#000000;stroke-width:1;stroke-linejoin:miter;stroke-miterlimit:4;stroke-opacity:1;stroke-dasharray:none;stroke-dashoffset:0;display:inline"
       id="path3896-2-2-6"
       sodipodi:cx="96.286369"
       sodipodi:cy="178.32086"
       sodipodi:rx="4.6740956"
       sodipodi:ry="4.6740956"
       d="m 100.96046,178.32086 c 0,2.58143 -2.092659,4.6741 -4.674091,4.6741 -2.581431,0 -4.674095,-2.09267 -4.674095,-4.6741 0,-2.58143 2.092664,-4.67409 4.674095,-4.67409 2.581432,0 4.674091,2.09266 4.674091,4.67409 z"
       transform="translate(203.32316,-105.16715)" />
    <path
       sodipodi:type="arc"
       style="fill:#1b87dd;fill-opacity:1;stroke:#000000;stroke-width:1;stroke-linejoin:miter;stroke-miterlimit:4;stroke-opacity:1;stroke-dasharray:none;stroke-dashoffset:0;display:inline"
       id="path3896-2-2-1"
       sodipodi:cx="96.286369"
       sodipodi:cy="178.32086"
       sodipodi:rx="4.6740956"
       sodipodi:ry="4.6740956"
       d="m 100.96046,178.32086 c 0,2.58143 -2.092659,4.6741 -4.674091,4.6741 -2.581431,0 -4.674095,-2.09267 -4.674095,-4.6741 0,-2.58143 2.092664,-4.67409 4.674095,-4.67409 2.581432,0 4.674091,2.09266 4.674091,4.67409 z"
       transform="translate(240.71592,-34.588307)" />
    <path
       sodipodi:type="arc"
       style="fill:#1b87dd;fill-opacity:1;stroke:#000000;stroke-width:1;stroke-linejoin:miter;stroke-miterlimit:4;stroke-opacity:1;stroke-dasharray:none;stroke-dashoffset:0;display:inline"
       id="path3896-2-2-33"
       sodipodi:cx="96.286369"
       sodipodi:cy="178.32086"
       sodipodi:rx="4.6740956"
       sodipodi:ry="4.6740956"
       d="m 100.96046,178.32086 c 0,2.58143 -2.092659,4.6741 -4.674091,4.6741 -2.581431,0 -4.674095,-2.09267 -4.674095,-4.6741 0,-2.58143 2.092664,-4.67409 4.674095,-4.67409 2.581432,0 4.674091,2.09266 4.674091,4.67409 z"
       transform="translate(298.67471,-134.14654)" />
    <path
       sodipodi:type="arc"
       style="fill:#1b87dd;fill-opacity:1;stroke:#000000;stroke-width:1;stroke-linejoin:miter;stroke-miterlimit:4;stroke-opacity:1;stroke-dasharray:none;stroke-dashoffset:0;display:inline"
       id="path3896-2-2-65"
       sodipodi:cx="96.286369"
       sodipodi:cy="178.32086"
       sodipodi:rx="4.6740956"
       sodipodi:ry="4.6740956"
       d="m 100.96046,178.32086 c 0,2.58143 -2.092659,4.6741 -4.674091,4.6741 -2.581431,0 -4.674095,-2.09267 -4.674095,-4.6741 0,-2.58143 2.092664,-4.67409 4.674095,-4.67409 2.581432,0 4.674091,2.09266 4.674091,4.67409 z"
       transform="translate(284.18501,-51.882463)" />
    <path
       sodipodi:type="arc"
       style="fill:#1b87dd;fill-opacity:1;stroke:#000000;stroke-width:1;stroke-linejoin:miter;stroke-miterlimit:4;stroke-opacity:1;stroke-dasharray:none;stroke-dashoffset:0;display:inline"
       id="path3896-2-2-65-1"
       sodipodi:cx="96.286369"
       sodipodi:cy="178.32086"
       sodipodi:rx="4.6740956"
       sodipodi:ry="4.6740956"
       d="m 100.96046,178.32086 c 0,2.58143 -2.092659,4.6741 -4.674091,4.6741 -2.581431,0 -4.674095,-2.09267 -4.674095,-4.6741 0,-2.58143 2.092664,-4.67409 4.674095,-4.67409 2.581432,0 4.674091,2.09266 4.674091,4.67409 z"
       transform="translate(361.77501,-73.3833)" />
    <path
       sodipodi:type="arc"
       style="fill:#1b87dd;fill-opacity:1;stroke:#000000;stroke-width:1;stroke-linejoin:miter;stroke-miterlimit:4;stroke-opacity:1;stroke-dasharray:none;stroke-dashoffset:0;display:inline"
       id="path3896-2-2-65-9"
       sodipodi:cx="96.286369"
       sodipodi:cy="178.32086"
       sodipodi:rx="4.6740956"
       sodipodi:ry="4.6740956"
       d="m 100.96046,178.32086 c 0,2.58143 -2.092659,4.6741 -4.674091,4.6741 -2.581431,0 -4.674095,-2.09267 -4.674095,-4.6741 0,-2.58143 2.092664,-4.67409 4.674095,-4.67409 2.581432,0 4.674091,2.09266 4.674091,4.67409 z"
       transform="translate(328.58893,-14.022285)" />
  </g>
  <g
     inkscape:groupmode="layer"
     id="layer9"
     inkscape:label="Degrees"
     transform="translate(-21.305015,-22.173478)">
    <path
       sodipodi:type="arc"
       style="fill:none;stroke:#110505;stroke-width:1;stroke-linejoin:miter;stroke-miterlimit:4;stroke-opacity:0.84033616;stroke-dasharray:none;stroke-dashoffset:0"
       id="path5794"
       sodipodi:cx="171.45128"
       sodipodi:cy="195.41313"
       sodipodi:rx="10.493644"
       sodipodi:ry="10.493644"
       d="m 161.15336,193.39583 c 1.11413,-5.68738 6.62784,-9.39474 12.31522,-8.28061 4.36617,0.8553 7.71837,4.37101 8.36494,8.77292"
       transform="translate(-0.99152548,-1.3220339)"
       sodipodi:start="3.3350376"
       sodipodi:end="6.1373438"
       sodipodi:open="true" />
    <path
       sodipodi:type="arc"
       style="fill:none;stroke:#110505;stroke-width:1;stroke-linejoin:miter;stroke-miterlimit:4;stroke-opacity:0.84033616;stroke-dasharray:none;stroke-dashoffset:0"
       id="path5802"
       sodipodi:cx="178.63983"
       sodipodi:cy="200.94916"
       sodipodi:rx="18.34322"
       sodipodi:ry="18.34322"
       d="m 161.22109,195.19928 c 2.35241,-7.12643 8.80858,-12.10114 16.29925,-12.55915"
       transform="translate(-8.0974576,-5.2881356)"
       sodipodi:start="3.4604278"
       sodipodi:end="4.6513207"
       sodipodi:open="true" />
  </g>
  <g
     inkscape:groupmode="layer"
     id="layer10"
     inkscape:label="Layer"
     transform="translate(-21.305015,-22.173478)" />
  <text
     xml:space="preserve"
     style="font-size:9.62980175px;font-style:normal;font-weight:normal;fill:#000000;fill-opacity:1;stroke:none;font-family:Bitstream Vera Sans"
     x="159.63058"
     y="162.64543"
     id="text5832"
     transform="scale(0.98265061,1.0176557)"><tspan
       sodipodi:role="line"
       id="tspan5834"
       x="159.63058"
       y="162.64543">140°</tspan></text>
  <text
     xml:space="preserve"
     style="font-size:9.90172577px;font-style:normal;font-weight:normal;fill:#000000;fill-opacity:1;stroke:none;display:inline;font-family:Bitstream Vera Sans"
     x="124.84747"
     y="155.14798"
     id="text5832-1"
     transform="scale(0.98265061,1.0176557)"><tspan
       sodipodi:role="line"
       id="tspan5834-5"
       x="124.84747"
       y="155.14798">70°</tspan></text>
</svg>
